<!DOCTYPE svg PUBLIC "-//W3C//DTD SVG 20010904//EN" "http://www.w3.org/TR/2001/REC-SVG-20010904/DTD/svg10.dtd">
<svg version="1.0" xmlns="http://www.w3.org/2000/svg" width="217px" height="121px" viewBox="0 0 2170 1210" preserveAspectRatio="xMidYMid meet">
<g id="layer101" fill="#fb6900" stroke="none">
 <path d="M625 1078 c-33 -28 -163 -139 -290 -246 -126 -108 -233 -201 -237 -206 -18 -27 -6 -55 39 -92 26 -22 160 -135 296 -251 137 -117 255 -213 262 -213 42 0 74 45 56 78 -5 9 -108 100 -228 202 l-220 185 722 5 c783 5 755 3 755 60 0 57 28 55 -753 60 l-720 5 184 154 c283 237 297 253 251 294 -30 27 -53 20 -117 -35z"/>
 <path d="M1900 647 c-17 -9 -26 -22 -28 -44 -4 -44 26 -63 100 -63 74 0 106 13 114 46 6 22 2 32 -20 51 -22 18 -39 23 -84 23 -31 0 -68 -6 -82 -13z"/>
 </g>

</svg>