<!DOCTYPE svg PUBLIC "-//W3C//DTD SVG 20010904//EN" "http://www.w3.org/TR/2001/REC-SVG-20010904/DTD/svg10.dtd">
<svg version="1.0" xmlns="http://www.w3.org/2000/svg" width="100px" height="100px" viewBox="0 0 1000 1000" preserveAspectRatio="xMidYMid meet">
<g id="layer101" fill="#1c1756" stroke="none">
 <path d="M454 980 c-11 -4 -33 -22 -47 -40 l-27 -32 0 -229 c0 -126 -3 -229 -7 -229 -4 0 -41 35 -84 79 -87 89 -128 110 -184 91 -73 -24 -107 -109 -71 -178 24 -46 408 -420 439 -427 66 -17 83 -5 299 213 215 217 225 232 211 303 -7 39 -54 86 -90 90 -64 9 -84 -1 -173 -87 -48 -46 -89 -84 -91 -84 -2 0 -3 94 -1 208 2 150 -1 219 -10 247 -22 66 -99 102 -164 75z m96 -70 c19 -19 20 -33 20 -317 l0 -298 133 131 c72 72 140 134 150 138 19 6 57 -9 69 -28 25 -36 7 -61 -169 -240 -208 -211 -234 -233 -263 -220 -12 5 -108 97 -215 204 -195 195 -212 219 -187 256 12 19 50 34 69 28 10 -4 78 -66 151 -138 l132 -131 0 298 c0 284 1 298 20 317 11 11 31 20 45 20 14 0 34 -9 45 -20z"/>
 </g>

</svg>