<!DOCTYPE svg PUBLIC "-//W3C//DTD SVG 20010904//EN" "http://www.w3.org/TR/2001/REC-SVG-20010904/DTD/svg10.dtd">
<svg version="1.0" xmlns="http://www.w3.org/2000/svg" width="65px" height="65px" viewBox="0 0 650 650" preserveAspectRatio="xMidYMid meet">
<g id="layer101" fill="#dddee2" stroke="none">
 <path d="M194 606 c-40 -18 -104 -105 -104 -142 0 -16 -7 -38 -15 -48 -8 -11 -15 -34 -15 -52 0 -55 29 -146 54 -173 14 -14 27 -37 31 -51 8 -34 78 -108 109 -116 15 -3 33 0 47 9 19 14 24 14 45 0 14 -9 34 -13 47 -9 33 8 107 90 107 118 0 13 9 29 20 35 25 16 44 54 60 125 11 50 11 63 -3 100 -10 24 -17 53 -17 65 0 12 -11 34 -24 50 -12 15 -28 38 -34 49 -26 49 -130 68 -162 29 -10 -12 -16 -11 -43 6 -37 22 -60 23 -103 5z m103 -56 c16 -31 18 -425 3 -464 -14 -37 -45 -33 -85 12 -55 59 -40 115 20 76 34 -22 58 -4 24 19 -17 13 -21 22 -15 47 5 26 3 31 -12 28 -9 -2 -18 -13 -20 -24 -2 -12 -15 -27 -29 -33 -37 -17 -59 8 -79 86 -14 56 -14 64 2 99 10 22 18 46 19 54 1 8 3 24 4 35 1 18 4 17 22 -7 12 -17 34 -30 55 -34 25 -5 38 -14 45 -32 7 -19 13 -22 21 -14 9 9 8 18 0 37 -8 18 -9 32 -2 45 14 26 12 40 -5 40 -8 0 -15 -7 -15 -15 0 -18 -30 -34 -50 -27 -20 7 -30 22 -30 49 0 53 102 72 127 23z m163 10 c25 -25 25 -45 0 -70 -16 -16 -25 -18 -40 -10 -11 6 -20 17 -20 25 0 8 -7 15 -15 15 -18 0 -20 -31 -3 -48 9 -9 9 -15 0 -24 -15 -15 -16 -45 -2 -53 6 -3 14 5 20 19 6 17 17 26 31 26 11 0 33 13 49 29 33 32 40 30 40 -11 0 -16 7 -40 16 -53 17 -26 16 -64 -4 -139 -15 -56 -35 -73 -66 -57 -13 8 -27 24 -30 37 -4 13 -13 24 -22 24 -12 0 -14 -7 -9 -29 5 -23 2 -32 -17 -45 -16 -12 -19 -19 -11 -27 8 -8 18 -6 37 6 21 14 29 15 41 5 8 -7 15 -19 15 -26 0 -21 -70 -94 -89 -94 -38 0 -41 17 -41 254 0 199 2 232 17 248 22 24 77 24 103 -2z"/>
 <path d="M177 393 c-4 -3 -4 -16 -1 -29 4 -17 -1 -27 -20 -39 -30 -20 -24 -40 8 -30 11 4 39 10 60 13 49 9 61 32 17 32 -24 0 -31 4 -31 19 0 20 -23 45 -33 34z"/>
 <path d="M458 383 c-2 -19 -10 -29 -27 -33 -40 -9 -38 -30 3 -30 32 0 36 -3 36 -25 0 -16 6 -25 16 -25 13 0 15 7 10 33 -3 17 -7 47 -9 66 -3 42 -24 53 -29 14z"/>
 </g>

</svg>